<svg xmlns="http://www.w3.org/2000/svg" viewBox="0 0 100 100" width="100" height="100">
    <!-- Body -->
    <path d="M20,90 C20,70 80,70 80,90 L90,90 C90,60 10,60 10,90 Z" fill="#9a8c98"/>
    <path d="M25,40 C20,60 80,60 75,40 Q50,10 25,40 Z" fill="#4a4e69"/>
    
    <!-- Eyes -->
    <circle cx="40" cy="50" r="8" fill="white"/>
    <circle cx="40" cy="52" r="3" fill="black"/>
    <circle cx="60" cy="50" r="8" fill="white"/>
    <circle cx="60" cy="52" r="3" fill="black"/>
    
    <!-- Mouth -->
    <path d="M40,70 Q50,80 60,70" stroke="white" stroke-width="3" fill="none" stroke-linecap="round"/>
    
    <!-- Horns -->
    <path d="M30,35 Q35,25 40,35" fill="#9a8c98"/>
    <path d="M70,35 Q65,25 60,35" fill="#9a8c98"/>
</svg> 